<?xml version="1.0" standalone="no"?>
<!DOCTYPE svg PUBLIC "-//W3C//DTD SVG 20010904//EN"
 "http://www.w3.org/TR/2001/REC-SVG-20010904/DTD/svg10.dtd">
<svg version="1.0" xmlns="http://www.w3.org/2000/svg"
 width="50.000000pt" height="50.000000pt" viewBox="0 0 50.000000 50.000000"
 preserveAspectRatio="xMidYMid meet">

<g transform="translate(0.000000,50.000000) scale(0.100000,-0.100000)"
fill="#000000" stroke="none">
<path d="M46 441 l-28 -29 36 -37 c34 -34 39 -36 58 -23 49 33 48 69 0 94 -12
6 -19 14 -15 17 3 4 0 7 -8 7 -9 0 -28 -13 -43 -29z m74 -26 c10 -13 9 -19 -5
-35 -17 -19 -19 -19 -37 -3 -17 15 -17 17 -2 35 21 22 28 22 44 3z"/>
<path d="M403 463 c4 -3 -3 -11 -15 -17 -48 -25 -49 -61 0 -94 19 -13 24 -11
58 23 l36 37 -28 29 c-15 16 -34 29 -43 29 -8 0 -11 -3 -8 -7z m21 -51 c15
-18 15 -20 -2 -35 -18 -16 -20 -16 -37 3 -14 16 -15 22 -5 35 16 19 23 19 44
-3z"/>
<path d="M178 379 c-43 -22 -78 -81 -78 -129 0 -50 35 -107 80 -130 50 -25 90
-25 140 0 45 23 80 80 80 130 0 50 -35 107 -80 130 -49 25 -94 25 -142 -1z
m151 -27 c58 -43 64 -140 12 -193 -76 -75 -204 -30 -217 77 -14 110 115 183
205 116z"/>
<path d="M47 118 l-28 -31 32 -33 c18 -18 36 -31 41 -28 4 3 6 10 3 15 -4 5 0
9 8 9 18 0 47 32 47 52 0 20 -32 48 -56 48 -11 0 -32 -14 -47 -32z m73 -4 c11
-12 10 -18 -3 -31 -15 -15 -18 -15 -37 2 -15 14 -17 21 -9 32 15 17 34 17 49
-3z"/>
<path d="M367 132 c-10 -10 -17 -25 -17 -34 0 -17 31 -48 49 -48 7 0 10 -4 6
-9 -3 -5 -1 -12 3 -15 5 -3 23 10 41 28 l32 33 -28 31 c-31 36 -62 41 -86 14z
m62 -15 c8 -11 6 -18 -9 -32 -19 -17 -22 -17 -37 -2 -13 13 -14 19 -3 31 15
20 34 20 49 3z"/>
</g>
</svg>
